<svg width="24" height="28" viewBox="0 0 24 28" fill="none" xmlns="http://www.w3.org/2000/svg">
<g filter="url(#filter0_d_1_993)">
<path d="M20 10.9V6H18V4H5V5H4V8H5V9H18V7H19V10.1L11 11.1V13H10V13.9C10 13.9 10.5 13.9 10.5 14.8C10.5 15.7 10 15.4 10 16.3V19.1C10 19.1 10 20 11.5 20C13 20 13 19.1 13 19.1V16.3C13 15.4 12.5 15.6 12.5 14.8C12.5 14 13 13.9 13 13.9V13H12V11.9L20 10.9Z" fill="#67B569"/>
</g>
<defs>
<filter id="filter0_d_1_993" x="-4" y="0" width="32" height="32" filterUnits="userSpaceOnUse" color-interpolation-filters="sRGB">
<feFlood flood-opacity="0" result="BackgroundImageFix"/>
<feColorMatrix in="SourceAlpha" type="matrix" values="0 0 0 0 0 0 0 0 0 0 0 0 0 0 0 0 0 0 127 0" result="hardAlpha"/>
<feOffset dy="4"/>
<feGaussianBlur stdDeviation="2"/>
<feComposite in2="hardAlpha" operator="out"/>
<feColorMatrix type="matrix" values="0 0 0 0 0 0 0 0 0 0 0 0 0 0 0 0 0 0 0.25 0"/>
<feBlend mode="normal" in2="BackgroundImageFix" result="effect1_dropShadow_1_993"/>
<feBlend mode="normal" in="SourceGraphic" in2="effect1_dropShadow_1_993" result="shape"/>
</filter>
</defs>
</svg>
